<?xml version="1.0" encoding="utf-8"?>
<!-- Generator: Adobe Illustrator 24.0.1, SVG Export Plug-In . SVG Version: 6.00 Build 0)  -->
<svg version="1.1" id="Capa_1" xmlns="http://www.w3.org/2000/svg" xmlns:xlink="http://www.w3.org/1999/xlink" x="0px" y="0px"
	 viewBox="0 0 284.9 166.2" style="enable-background:new 0 0 284.9 166.2;" xml:space="preserve">
<style type="text/css">
	.st0{fill:#FFFFFF;}
</style>
<g>
	<path class="st0" d="M282.1,17.1L267.8,2.9C265.9,1,263.7,0,261.2,0c-2.5,0-4.7,1-6.6,2.9L142.5,115.1L30.3,2.9
		C28.4,1,26.2,0,23.7,0c-2.5,0-4.7,1-6.6,2.9L2.9,17.1C0.9,19,0,21.2,0,23.7c0,2.5,1,4.7,2.9,6.6l133,133c1.9,1.9,4.1,2.9,6.6,2.9
		s4.7-1,6.6-2.9l133.1-133c1.9-1.9,2.8-4.1,2.8-6.6C284.9,21.2,284,19,282.1,17.1z"/>
</g>
</svg>
