<svg xmlns="http://www.w3.org/2000/svg" viewBox="0 0 463.507 463.507"><path d="M246.413 78.492c21.688 0 39.255-17.573 39.255-39.251 0-21.67-17.567-39.24-39.255-39.24-21.652 0-39.242 17.57-39.242 39.24 0 21.678 17.59 39.251 39.242 39.251z"/><path d="M386.604 202.858c0-11.185-9.066-20.251-20.253-20.251h-68.479l-38.62-54.832.127-.933a39.81 39.81 0 00-7.911-29.444 39.855 39.855 0 00-26.408-15.23c-11.596-1.511-22.592 2.224-30.852 9.225V45.779c0-7.847-6.362-14.217-14.225-14.217H140.59c-7.867 0-14.225 6.37-14.225 14.217v168.953c0 20.68 15.821 37.476 35.979 39.446l-3.043 7.073-23.859 90.136-53.73 72.188c-8.006 10.768-5.794 25.987 4.984 34.001a24.159 24.159 0 0014.491 4.811c7.422 0 14.729-3.385 19.511-9.795l56.529-75.945a24.248 24.248 0 004.003-8.289l16.266-61.414 44.521 40.877-6.076 88.603c-.917 13.393 9.177 24.99 22.58 25.908.552.04 1.124.056 1.691.056 12.66 0 23.339-9.819 24.208-22.642l6.882-100.264a24.291 24.291 0 00-7.815-19.564l-45.994-42.219 13.992-90.613 19.331 27.435a20.262 20.262 0 0016.552 8.592h70.882l1.339 232.294a8.098 8.098 0 008.101 8.101 8.096 8.096 0 008.101-8.101l-1.339-234.036c7.136-3.126 12.152-10.221 12.152-18.513z"/></svg>